<svg xmlns="http://www.w3.org/2000/svg" viewBox="0 0 180 180">
  <rect width="180" height="180" rx="40" fill="#fff1f5"/>
  <circle cx="90" cy="100" r="57" fill="#d99b63"/>
  <path d="M48 74 39 35l34 23Z" fill="#d99b63"/>
  <path d="M132 74 141 35l-34 23Z" fill="#d99b63"/>
  <ellipse cx="90" cy="112" rx="27" ry="20" fill="#ffe3c5"/>
  <circle cx="68" cy="94" r="10" fill="#5b321f"/>
  <circle cx="112" cy="94" r="10" fill="#5b321f"/>
  <circle cx="72" cy="91" r="3" fill="#fffaf7"/>
  <circle cx="116" cy="91" r="3" fill="#fffaf7"/>
  <path d="M90 106c7 0 10.5 3.5 6 7.4-2.4 2-3.8 2.8-6 2.8s-3.6-.8-6-2.8c-4.5-3.9-1-7.4 6-7.4Z" fill="#df7b7b"/>
  <path d="M90 117v6M90 123c-5.6 6.5-12.6 7-18.2 1.8M90 123c5.6 6.5 12.6 7 18.2 1.8" fill="none" stroke="#7a4a33" stroke-width="5.6" stroke-linecap="round"/>
  <circle cx="53" cy="64" r="15" fill="#ffd4dd"/>
  <circle cx="53" cy="64" r="5.8" fill="#f5b4c1"/>
</svg>
